PathFileType	4	(X/Y/Z)	output.trc
DataRate	CameraRate	NumFrames	NumMarkers	Units	OrigDataRate	OrigDataStartFrame	OrigNumFrames
100	100	15	23	m	100	1	6039
Frame#	Time	C7			T8			EL			EM			US			RS			AA			Fore_Clus_1			Fore_Clus_2			Fore_Clus_3			Fore_Clus_4			Hum_Clus_1			Hum_Clus_2			Hum_Clus_3			Hum_Clus_4			Thor_Clus_1			Thor_Clus_2			Thor_Clus_3			Thor_Clus_4			IJ			PX			GH			Thor_Clus_5		
		X1	Y1	Z1	X2	Y2	Z2	X3	Y3	Z3	X4	Y4	Z4	X5	Y5	Z5	X6	Y6	Z6	X7	Y7	Z7	X8	Y8	Z8	X9	Y9	Z9	X10	Y10	Z10	X11	Y11	Z11	X12	Y12	Z12	X13	Y13	Z13	X14	Y14	Z14	X15	Y15	Z15	X16	Y16	Z16	X17	Y17	Z17	X18	Y18	Z18	X19	Y19	Z19	X20	Y20	Z20	X21	Y21	Z21	X22	Y22	Z22	X23	Y23	Z23
0	0.000000	-0.057762	1.444538	-0.074937	-0.052430	1.217817	-0.062546	-0.202322	1.087568	0.113998	-0.190518	1.059696	0.053647	-0.195426	0.830748	0.182800	-0.148729	0.838905	0.192396	-0.176414	1.360014	0.059684	-0.208321	0.887039	0.203630	-0.204842	0.834570	0.217902	-0.177763	0.838299	0.224131	-0.164853	0.893377	0.213552	-0.179752	1.194545	0.152325	-0.231424	1.207861	0.124255	-0.227769	1.271515	0.124814	-0.172623	1.267918	0.145100	0.075457	1.337290	0.043602	0.040252	1.292109	0.105503	0.038840	1.336991	0.069135	0.092793	1.292249	0.067827	0.006471	1.365734	0.001977	0.049406	1.161078	0.081838	-0.147697	1.342325	0.055829	0.032308	1.311999	0.094486
1	0.010000	-0.057471	1.444509	-0.074838	-0.052170	1.217790	-0.062412	-0.202167	1.087667	0.114079	-0.190432	1.059825	0.053702	-0.195431	0.830778	0.182671	-0.148714	0.838887	0.192207	-0.176151	1.360021	0.059779	-0.208290	0.887156	0.203675	-0.204807	0.834611	0.217815	-0.177317	0.838109	0.223904	-0.164753	0.893362	0.213443	-0.179495	1.194602	0.152480	-0.231166	1.207977	0.124444	-0.227478	1.271626	0.125040	-0.172337	1.267991	0.145267	0.075684	1.337253	0.043735	0.040700	1.292157	0.105680	0.039074	1.336973	0.069265	0.093158	1.292246	0.068055	0.006742	1.365709	0.002095	0.049641	1.161061	0.081994	-0.147418	1.342423	0.056025	0.032527	1.311984	0.094619
2	0.020000	-0.057205	1.444478	-0.074758	-0.051913	1.217760	-0.062293	-0.202015	1.087751	0.114162	-0.190356	1.059937	0.053756	-0.195431	0.830797	0.182558	-0.148691	0.838861	0.192025	-0.175911	1.360016	0.059853	-0.208139	0.887081	0.203559	-0.204747	0.834632	0.217726	-0.177110	0.837807	0.223809	-0.164645	0.893351	0.213345	-0.179224	1.194661	0.152573	-0.230918	1.208083	0.124644	-0.227214	1.271713	0.125255	-0.172082	1.268040	0.145437	0.075864	1.337215	0.043849	0.040903	1.292150	0.105797	0.039310	1.336960	0.069393	0.093359	1.292199	0.068167	0.006992	1.365689	0.002200	0.049871	1.161052	0.082140	-0.147166	1.342507	0.056202	0.032747	1.311976	0.094727
3	0.030000	-0.056964	1.444445	-0.074696	-0.051666	1.217730	-0.062192	-0.201871	1.087819	0.114244	-0.190294	1.060028	0.053812	-0.195422	0.830809	0.182468	-0.148660	0.838830	0.191857	-0.175695	1.360002	0.059904	-0.208069	0.887101	0.203559	-0.204701	0.834620	0.217689	-0.177078	0.837815	0.223595	-0.164551	0.893310	0.213277	-0.179024	1.194698	0.152692	-0.230726	1.208146	0.124788	-0.226955	1.271780	0.125433	-0.171819	1.268081	0.145557	0.076017	1.337203	0.043931	0.040995	1.292120	0.105861	0.039507	1.336951	0.069486	0.093515	1.292174	0.068251	0.007220	1.365672	0.002289	0.050090	1.161050	0.082272	-0.146942	1.342573	0.056350	0.032940	1.311953	0.094817
4	0.040000	-0.056747	1.444417	-0.074653	-0.051433	1.217704	-0.062114	-0.201737	1.087871	0.114321	-0.190244	1.060098	0.053864	-0.195403	0.830816	0.182406	-0.148617	0.838797	0.191711	-0.175506	1.359983	0.059929	-0.207975	0.887099	0.203564	-0.204624	0.834610	0.217648	-0.177015	0.837784	0.223546	-0.164445	0.893262	0.213197	-0.178832	1.194720	0.152782	-0.230567	1.208186	0.124912	-0.226737	1.271834	0.125567	-0.171560	1.268103	0.145658	0.076163	1.337187	0.043993	0.041109	1.292103	0.105910	0.039708	1.336961	0.069576	0.093715	1.292190	0.068380	0.007423	1.365661	0.002360	0.050290	1.161054	0.082385	-0.146750	1.342620	0.056461	0.033087	1.311939	0.094894
5	0.050000	-0.056550	1.444402	-0.074625	-0.051217	1.217690	-0.062066	-0.201613	1.087908	0.114386	-0.190201	1.060147	0.053909	-0.195370	0.830820	0.182375	-0.148561	0.838767	0.191595	-0.175345	1.359966	0.059924	-0.207886	0.887093	0.203582	-0.204560	0.834608	0.217637	-0.176949	0.837744	0.223506	-0.164331	0.893230	0.213151	-0.178630	1.194722	0.152850	-0.230424	1.208194	0.125006	-0.226558	1.271866	0.125711	-0.171345	1.268101	0.145728	0.076320	1.337199	0.044054	0.041280	1.292127	0.105978	0.039885	1.336951	0.069635	0.093889	1.292206	0.068447	0.007603	1.365657	0.002416	0.050463	1.161062	0.082471	-0.146593	1.342652	0.056530	0.033227	1.311977	0.094938
6	0.060000	-0.056373	1.444396	-0.074614	-0.051023	1.217685	-0.062046	-0.201506	1.087932	0.114438	-0.190168	1.060174	0.053946	-0.195323	0.830826	0.182378	-0.148493	0.838744	0.191514	-0.175212	1.359953	0.059891	-0.207799	0.887104	0.203635	-0.204465	0.834599	0.217662	-0.176834	0.837714	0.223490	-0.164220	0.893211	0.213135	-0.178485	1.194716	0.152900	-0.230277	1.208212	0.125085	-0.226395	1.271891	0.125778	-0.171196	1.268111	0.145770	0.076467	1.337229	0.044131	0.041430	1.292130	0.106012	0.040057	1.336975	0.069686	0.094022	1.292216	0.068523	0.007758	1.365660	0.002454	0.050607	1.161071	0.082532	-0.146470	1.342665	0.056549	0.033365	1.311980	0.094980
7	0.070000	-0.056207	1.444409	-0.074617	-0.050849	1.217698	-0.062062	-0.201410	1.087946	0.114469	-0.190135	1.060182	0.053968	-0.195261	0.830836	0.182416	-0.148411	0.838734	0.191473	-0.175106	1.359949	0.059825	-0.207715	0.887102	0.203686	-0.204380	0.834600	0.217735	-0.176749	0.837706	0.223514	-0.164123	0.893194	0.213142	-0.178363	1.194710	0.152906	-0.230166	1.208208	0.125116	-0.226290	1.271867	0.125813	-0.171071	1.268110	0.145773	0.076595	1.337253	0.044174	0.041514	1.292110	0.106046	0.040190	1.336961	0.069714	0.094142	1.292228	0.068570	0.007891	1.365672	0.002477	0.050714	1.161080	0.082561	-0.146383	1.342665	0.056517	0.033472	1.311982	0.095007
8	0.080000	-0.056052	1.444438	-0.074636	-0.050698	1.217725	-0.062109	-0.201331	1.087952	0.114477	-0.190106	1.060174	0.053973	-0.195184	0.830856	0.182490	-0.148319	0.838739	0.191475	-0.175026	1.359958	0.059727	-0.207612	0.887114	0.203757	-0.204245	0.834605	0.217784	-0.176647	0.837703	0.223556	-0.164000	0.893196	0.213163	-0.178260	1.194711	0.152867	-0.230075	1.208202	0.125103	-0.226215	1.271850	0.125795	-0.170978	1.268106	0.145716	0.076664	1.337232	0.044195	0.041589	1.292090	0.106043	0.040277	1.336966	0.069725	0.094242	1.292233	0.068610	0.008004	1.365691	0.002483	0.050784	1.161088	0.082564	-0.146326	1.342654	0.056428	0.033528	1.311956	0.094997
9	0.090000	-0.055901	1.444482	-0.074670	-0.050568	1.217766	-0.062188	-0.201268	1.087953	0.114459	-0.190076	1.060153	0.053959	-0.195095	0.830887	0.182596	-0.148217	0.838764	0.191520	-0.174968	1.359981	0.059597	-0.207525	0.887141	0.203840	-0.204131	0.834626	0.217870	-0.176525	0.837771	0.223757	-0.163904	0.893229	0.213207	-0.178181	1.194702	0.152783	-0.230024	1.208189	0.125044	-0.226168	1.271845	0.125713	-0.170914	1.268111	0.145616	0.076744	1.337244	0.044257	0.041638	1.292064	0.106034	0.040349	1.336941	0.069740	0.094319	1.292235	0.068645	0.008099	1.365716	0.002475	0.050816	1.161094	0.082540	-0.146299	1.342634	0.056284	0.033559	1.311934	0.094985
10	0.100000	-0.055750	1.444544	-0.074719	-0.050457	1.217824	-0.062298	-0.201217	1.087953	0.114409	-0.190040	1.060123	0.053920	-0.194994	0.830933	0.182731	-0.148107	0.838813	0.191607	-0.174931	1.360020	0.059433	-0.207413	0.887222	0.203937	-0.203997	0.834693	0.217984	-0.176399	0.837838	0.223896	-0.163776	0.893298	0.213287	-0.178125	1.194721	0.152653	-0.229990	1.208191	0.124941	-0.226124	1.271853	0.125540	-0.170888	1.268133	0.145481	0.076824	1.337278	0.044297	0.041641	1.292051	0.106011	0.040410	1.336969	0.069754	0.094359	1.292250	0.068685	0.008181	1.365747	0.002452	0.050809	1.161096	0.082491	-0.146297	1.342611	0.056085	0.033576	1.311918	0.094965
11	0.110000	-0.055598	1.444615	-0.074786	-0.050362	1.217890	-0.062432	-0.201184	1.087955	0.114330	-0.190002	1.060087	0.053859	-0.194886	0.830997	0.182891	-0.147994	0.838885	0.191732	-0.174911	1.360074	0.059237	-0.207313	0.887307	0.204054	-0.203877	0.834799	0.218135	-0.176253	0.837959	0.224016	-0.163646	0.893383	0.213364	-0.178097	1.194761	0.152483	-0.229987	1.208186	0.124799	-0.226122	1.271860	0.125340	-0.170876	1.268150	0.145290	0.076839	1.337256	0.044307	0.041586	1.292020	0.105996	0.040393	1.336923	0.069737	0.094383	1.292231	0.068730	0.008251	1.365780	0.002414	0.050768	1.161096	0.082426	-0.146315	1.342585	0.055833	0.033540	1.311900	0.094952
12	0.120000	-0.055438	1.444698	-0.074870	-0.050279	1.217966	-0.062591	-0.201162	1.087963	0.114216	-0.189955	1.060050	0.053771	-0.194773	0.831079	0.183070	-0.147880	0.838983	0.191892	-0.174905	1.360142	0.059008	-0.207165	0.887391	0.204133	-0.203723	0.835028	0.218348	-0.176123	0.838108	0.224111	-0.163535	0.893525	0.213458	-0.178093	1.194811	0.152258	-0.230002	1.208189	0.124616	-0.226125	1.271869	0.125082	-0.170890	1.268190	0.145030	0.076868	1.337258	0.044332	0.041518	1.292008	0.105960	0.040396	1.336937	0.069715	0.094295	1.292161	0.068746	0.008313	1.365817	0.002364	0.050695	1.161092	0.082344	-0.146351	1.342562	0.055534	0.033491	1.311889	0.094917
13	0.130000	-0.055271	1.444784	-0.074974	-0.050203	1.218046	-0.062769	-0.201154	1.087976	0.114071	-0.189902	1.060013	0.053657	-0.194659	0.831180	0.183261	-0.147769	0.839105	0.192080	-0.174910	1.360222	0.058747	-0.206949	0.887440	0.204186	-0.203605	0.835179	0.218531	-0.176014	0.838327	0.224212	-0.163428	0.893668	0.213546	-0.178126	1.194870	0.152030	-0.230022	1.208216	0.124375	-0.226167	1.271891	0.124770	-0.170910	1.268233	0.144681	0.076901	1.337267	0.044359	0.041406	1.291994	0.105919	0.040361	1.336945	0.069696	0.094081	1.292035	0.068781	0.008370	1.365854	0.002301	0.050596	1.161086	0.082254	-0.146398	1.342542	0.055193	0.033425	1.311886	0.094865
14	0.140000	-0.055095	1.444870	-0.075097	-0.050131	1.218127	-0.062963	-0.201157	1.087997	0.113894	-0.189842	1.059980	0.053517	-0.194548	0.831299	0.183459	-0.147665	0.839251	0.192288	-0.174924	1.360311	0.058455	-0.206844	0.887674	0.204310	-0.203455	0.835384	0.218684	-0.175849	0.838551	0.224409	-0.163325	0.893855	0.213633	-0.178194	1.194938	0.151772	-0.230038	1.208284	0.124062	-0.226222	1.271940	0.124404	-0.170972	1.268334	0.144345	0.076864	1.337256	0.044337	0.041314	1.292005	0.105859	0.040336	1.336945	0.069640	0.094070	1.292050	0.068791	0.008425	1.365889	0.002226	0.050476	1.161078	0.082159	-0.146452	1.342527	0.054814	0.033338	1.311885	0.094802
